<svg width="128" height="128" viewBox="0 0 128 128" xmlns="http://www.w3.org/2000/svg">
  <g id="balance">
    <path
      d="M64.457 112.754C90.0588 112.065 110.567 102.341 110.263 91.0334C109.959 79.726 88.9579 71.1174 63.3561 71.8058C37.7543 72.4941 17.2464 82.2186 17.5505 93.526C17.8545 104.833 38.8553 113.442 64.457 112.754Z"
      fill="#999999"/>
    <path
      d="M102.441 60.6302C103.791 51.5526 88.2278 41.7165 67.68 38.6606C47.1323 35.6047 29.3806 40.4863 28.0306 49.5639C26.6805 58.6415 42.2434 68.4776 62.7911 71.5335C83.3389 74.5894 101.091 69.7078 102.441 60.6302Z"
      fill="#cccccc"/>
    <path
      d="M66.5503 38.9456C81.698 38.5383 93.832 32.789 93.6522 26.1041C93.4725 19.4192 81.0471 14.3301 65.8994 14.7374C50.7517 15.1447 38.6177 20.894 38.7975 27.5789C38.9772 34.2638 51.4026 39.3529 66.5503 38.9456Z"
      fill="#ffffff"/>
  </g>
</svg>
