<svg
  width="128"
  height="128"
  viewBox="0 0 128 128"
  xmlns="http://www.w3.org/2000/svg">
  <path
    id="balance"
    d="M82.653 85C89.5535 82.7778 92.7384 78.8889 92.7384 72.8889C92.7384 67 89.6597 63.1111 82.8653 60.8889C91.5706 59.3333 98.1527 56.3333 98.1527 51.4444C98.1527 44.8889 86.2625 41.7778 73.4168 40.7778C75.4339 39.1111 76.3894 36.7778 76.3894 33.8889C76.3894 30.3333 73.6291 27.5556 69.4888 25.6667C71.7182 24.2222 72.7799 21.8889 72.7799 18.6667C72.7799 13.8889 68.2149 10 62.4821 10C55.9 10 51.335 13.5555 51.335 18.6667C51.335 19.8889 51.5474 21.4445 52.3967 22.8889C39.0202 23.3333 30.5272 27.5556 30.5272 33.8889C30.5272 40.4444 36.8969 43.1111 43.3728 44.2222C40.8249 46 39.6572 48.3333 39.6572 51.4444C39.6572 55.3333 41.4619 58.1111 45.4961 59.8889C31.3765 61.6667 18 65.7778 18 72.8889C18 78.7778 27.13 82.5556 38.3832 84.7778C25.7499 87 20.3356 92.1111 20.3356 100.667C20.3356 113 31.3765 118 58.5541 118C89.9782 118 110.255 111.222 110.255 100.667C110.149 93.2222 99.8513 87.6667 82.653 85ZM62.4821 14.4444C65.667 14.4444 68.5334 16.4444 68.5334 18.6667C68.5334 20.6667 55.6877 19.8889 55.6877 18.6667C55.5815 16.2222 58.3418 14.4444 62.4821 14.4444ZM34.7737 34C34.7737 31.3333 41.0373 27.4444 54.5199 27.4444C65.1362 27.4444 72.1429 31.4445 72.1429 34C72.1429 36.1111 34.7737 38.2222 34.7737 34ZM43.9037 51.5556C43.9037 49.5556 43.9036 45 64.1807 45C85.0947 45 93.9062 49.6667 93.9062 51.5556C93.9062 53.4444 43.9037 53.4444 43.9037 51.5556ZM22.2465 73C22.2465 69.5555 38.0647 63.2222 63.756 63.2222C88.4919 63.2222 88.4919 69.7778 88.4919 73C88.4919 76.2222 22.2465 76.4444 22.2465 73ZM24.4759 100.667C24.4759 96.4445 24.4759 87.7778 58.4479 87.7778C91.146 87.7778 105.903 95.3334 105.903 100.667C105.903 106 24.4759 104.889 24.4759 100.667Z"
    fill="currentColor"/>
</svg>
